<svg id="Layer_1" data-name="Layer 1" xmlns="http://www.w3.org/2000/svg" viewBox="0 0 50.66 39.47"><defs><style>.cls-1{fill:#fff;}</style></defs><title>v-white</title><polygon class="cls-1" points="46.43 8.45 40.41 8.45 37.74 14.11 43.6 14.11 46.43 8.45"/><path class="cls-1" d="M46.95,33.41,40.47,47.13l1.38-13.71h-15A7.24,7.24,0,0,0,34,39.07h1.7L34.43,56h7l11.3-22.56Z" transform="translate(-10.54 -16.51)"/><polygon class="cls-1" points="47.83 5.65 50.66 0 44.41 0 41.73 5.65 47.83 5.65"/><path class="cls-1" d="M43.06,21.33a4.17,4.17,0,0,0-.67-3.2,4.05,4.05,0,0,0-3.52-1.62H10.54a7.23,7.23,0,0,0,7.06,5.65H43Z" transform="translate(-10.54 -16.51)"/><path class="cls-1" d="M42.7,25H18.4a7.23,7.23,0,0,0,7.07,5.66H42.13Z" transform="translate(-10.54 -16.51)"/></svg>