<svg id="Layer_1" data-name="Layer 1" xmlns="http://www.w3.org/2000/svg" viewBox="0 0 435.49 80.92"><defs><style>.cls-1{fill:#1e4286;}.cls-2{fill:#3b5cad;}.cls-3{fill:#5d72b9;}</style></defs><title>volo-city-blue</title><path class="cls-1" d="M255,65.65l-9.95,34.7H227.74l9.95-34.7H226.13l-9.95,34.7q-1.39,4.86,1,8.21t7.25,3.35h17.34a14.68,14.68,0,0,0,9.17-3.35,15.73,15.73,0,0,0,5.71-8.21l9.95-34.7Z" transform="translate(-31.63 -30.99)"/><polygon class="cls-1" points="164.67 34.66 153.11 34.66 139.85 80.92 174.53 80.92 177.84 69.36 154.72 69.36 164.67 34.66"/><path class="cls-1" d="M161.62,65.65l-9.95,34.7H134.33l9.95-34.7H132.72l-9.95,34.7q-1.39,4.86,1,8.21t7.25,3.35h17.34a14.68,14.68,0,0,0,9.17-3.35,15.73,15.73,0,0,0,5.71-8.21l9.95-34.7Z" transform="translate(-31.63 -30.99)"/><path class="cls-1" d="M106.28,65.65,93,93.76l2.83-28.11H65.16a14.83,14.83,0,0,0,14.49,11.6h3.48l-2.51,34.66H95l23.18-46.26Z" transform="translate(-31.63 -30.99)"/><polygon class="cls-2" points="114.3 28.93 102.74 28.93 106.06 17.33 117.63 17.33 114.3 28.93"/><polygon class="cls-2" points="239.93 17.33 228.37 17.33 225.05 28.93 236.61 28.93 239.93 17.33"/><polygon class="cls-2" points="211.03 17.33 199.47 17.33 196.15 28.93 207.71 28.93 211.03 17.33"/><polygon class="cls-2" points="146.53 17.33 134.97 17.33 131.64 28.93 143.2 28.93 146.53 17.33"/><polygon class="cls-2" points="169.64 17.33 158.09 17.33 154.76 28.93 166.32 28.93 169.64 17.33"/><polygon class="cls-2" points="95.19 17.33 82.84 17.33 77.36 28.93 89.38 28.93 95.19 17.33"/><path class="cls-2" d="M97.57,48.32H47.75a14.83,14.83,0,0,0,14.49,11.6H96.4Z" transform="translate(-31.63 -30.99)"/><path class="cls-3" d="M273.21,42.58v0q1.39-4.86-1-8.21T265,31H247.63a14.7,14.7,0,0,0-9.17,3.35,15.74,15.74,0,0,0-5.71,8.21v0Z" transform="translate(-31.63 -30.99)"/><polygon class="cls-3" points="171.29 11.59 174.61 0 163.05 0 159.73 11.59 171.29 11.59"/><polygon class="cls-3" points="98.06 11.59 103.87 0 91.04 0 85.56 11.59 98.06 11.59"/><path class="cls-3" d="M98.3,40.89a8.56,8.56,0,0,0-1.38-6.57Q94.53,31,89.71,31H31.63A14.83,14.83,0,0,0,46.11,42.58h52Z" transform="translate(-31.63 -30.99)"/><path class="cls-3" d="M179.8,42.58v0q1.39-4.86-1-8.21T171.56,31H154.22a14.7,14.7,0,0,0-9.17,3.35,15.74,15.74,0,0,0-5.71,8.21v0Z" transform="translate(-31.63 -30.99)"/><path class="cls-1" d="M329.16,88.79H317.6l-3.31,11.56H296.94l16.57-57.8h17.34l-3.32,11.56H339.1l3.31-11.56q1.39-4.86-1-8.21T334.17,31H316.83a14.69,14.69,0,0,0-9.17,3.35A15.74,15.74,0,0,0,302,42.55l-16.58,57.8q-1.39,4.86,1,8.21t7.25,3.35H311a14.68,14.68,0,0,0,9.17-3.35,15.74,15.74,0,0,0,5.71-8.21Z" transform="translate(-31.63 -30.99)"/><polygon class="cls-1" points="335.82 0 324.26 0 301.06 80.92 312.62 80.92 335.82 0"/><polygon class="cls-1" points="384.95 0 344.5 0 341.18 11.56 355.63 11.56 335.74 80.92 347.3 80.92 367.19 11.56 381.64 11.56 384.95 0"/><polygon class="cls-1" points="422.77 0 401.76 36.99 401.96 0 389.25 0 392.22 49.71 383.26 80.92 394.83 80.92 403.77 49.71 435.49 0 422.77 0"/></svg>